<svg width="461" height="167" viewBox="0 0 461 167" fill="none" xmlns="http://www.w3.org/2000/svg">
<path d="M169.53 33.0215C175.622 33.4475 181.835 33.2617 187.937 33.1797L187.896 72.5447C199.545 71.9547 212.174 72.0872 223.814 72.7334L223.804 33.1111L242.5 33.3598L242.428 122.608L236.551 122.504L224.032 122.456C223.619 107.546 223.838 92.588 223.831 77.6725C211.905 78.0986 199.858 77.8288 187.922 77.7364L187.953 122.536C181.905 122.707 175.775 122.733 169.727 122.524C169.559 92.6937 169.998 62.8486 169.53 33.0215Z" fill="url(#paint0_linear_3_24)"/>
<path d="M358.15 33.03L365.093 33.0052C354.176 44.5238 343.421 56.3215 332.169 67.5112C345.815 85.9303 358.301 105.635 373.426 122.891C365.703 122.809 357.893 122.949 350.194 122.335C344.493 115.336 339.278 107.859 333.848 100.644C328.085 93.0569 322.186 85.5729 316.154 78.1948C316.145 83.9298 316.297 89.6733 316.381 95.4082L316.426 122.289C310.264 121.929 304.1 122.052 297.93 122.124C298.784 92.5594 298.055 62.7751 297.868 33.1901L316.055 33.3283C315.984 47.7663 315.993 62.2042 316.084 76.6412C326.802 65.9672 336.823 54.5163 347.329 43.6164C350.595 40.229 354.192 35.5291 358.15 33.03Z" fill="#505151"/>
<path d="M418.937 31.2534C420.989 33.4075 456.683 113.21 460.501 122.515L440.618 122.4C437.253 114.011 432.604 106.053 429.531 97.5595C426.471 97.5099 423.412 97.4756 420.352 97.4584L396.855 97.3984C392.992 105.814 389.333 114.322 385.882 122.914L378.74 122.938C388.118 103.629 396.5 83.5028 404.796 63.7064C409.287 52.9875 413.323 41.4366 418.937 31.2534ZM399.051 92.445C403.475 92.4355 408.061 92.6861 412.465 92.3678L426.767 92.2982C424.98 87.91 414.816 62.6589 412.828 60.7717C408.04 71.1369 403.206 81.8176 399.051 92.445Z" fill="#505151"/>
<path d="M114.967 31.2495C116.719 32.8736 152.351 113.455 156.573 122.554C150.112 122.939 143.326 122.791 136.855 122.441C133.032 114.272 129.422 106.006 126.029 97.6509L116.969 97.5241L92.6991 97.6251L81.7045 122.702L74.9041 122.974C88.547 92.5259 101.901 61.9497 114.967 31.2495ZM94.9831 92.2486C99.9326 92.1008 104.885 92.0503 109.836 92.097C114.323 92.1008 118.936 91.8759 123.406 92.2247C121.155 87.1198 111.631 63.5881 108.947 60.8135C104.157 71.195 99.1735 81.6126 94.9831 92.2486Z" fill="url(#paint1_linear_3_24)"/>
<path d="M26.8164 31.5479C26.9388 31.5288 27.0611 31.5069 27.1835 31.4907C37.9238 30.1211 49.6135 32.9728 58.328 39.3845C57.7648 42.0237 57.4455 44.6953 57.0994 47.3688C55.9177 46.0278 54.6644 44.7515 53.3431 43.5458C47.515 38.2045 39.5166 35.6244 31.6579 35.9838C27.3116 36.182 21.4663 37.26 18.5312 40.7455C16.0531 43.6897 14.1315 47.8559 14.6965 51.7732C16.6707 65.4515 44.5751 69.5175 54.6309 76.7527C59.8586 80.5147 64.0136 85.7131 64.9353 92.2381C65.9802 99.642 64.3559 106.609 59.9265 112.625C53.6614 121.132 44.9308 123.238 35.0595 124.725L34.3262 130.059C35.3081 130.124 36.2909 130.173 37.2718 130.258C40.0989 130.502 42.7538 131.517 44.5464 133.835C45.8601 135.544 46.3667 137.737 45.9356 139.847C45.4327 142.406 43.772 144.645 41.6276 146.092C37.2804 149.023 31.9877 148.531 27.0984 147.641C25.782 147.217 25.3288 147.202 24.431 146.112C24.3278 144.707 24.388 143.648 24.6452 142.263C26.3173 141.835 29.066 143.098 30.8203 143.427C32.546 143.751 34.8425 143.869 36.2871 142.679C37.4248 141.743 37.8932 139.747 37.7192 138.31C37.5825 137.19 37.3588 136.315 36.3521 135.673C33.7468 134.011 28.1969 135.277 25.3536 135.643C27.7753 131.966 28.7897 129.332 29.3777 124.959C18.5369 123.659 10.682 121.553 1.7171 115.098C2.3242 112.731 2.70471 110.279 3.1684 107.879C5.25355 109.77 7.4257 111.509 9.79003 113.044C17.9414 118.336 28.1272 121.113 37.7795 118.908C42.8036 117.76 46.7291 115.416 49.4739 111.017C51.3057 108.08 51.8889 104.788 51.082 101.418C47.8066 87.7432 24.6098 85.1278 14.0454 78.7133C8.41425 75.2944 4.20474 70.5412 2.77352 63.9904C1.24097 56.9744 2.58615 48.2295 6.71535 42.2972C11.5482 35.3566 18.9194 32.9642 26.8164 31.5479Z" fill="url(#paint2_linear_3_24)"/>
<path d="M261.007 33.3474C267.111 34.048 273.501 33.5981 279.633 33.3512C279.326 63.1183 279.292 92.8872 279.532 122.655C273.392 122.632 267.172 122.426 261.047 122.833L261.007 33.3474Z" fill="#BF7E65"/>
<path d="M20.124 20.9435C26.1261 17.1176 29.0306 12.7476 32.6933 6.86963C31.7305 11.4027 30.3213 15.6965 28.5755 19.9875C34.9161 16.5734 37.8856 12.6389 41.8829 6.88298C40.6209 11.5295 38.6619 15.91 36.7737 20.3259C43.7701 18.1146 47.5025 14.793 51.343 8.66055C51.1872 9.23528 51.0189 9.8024 50.8545 10.3743C49.7005 14.3907 47.5972 17.741 45.1841 21.1141L45.6698 21.4839C51.9224 21.786 55.5191 17.6056 60.0986 14.0333C58.5622 16.8841 54.0745 21.3552 53.6748 23.8591L54.3584 24.4891C57.4914 24.8103 59.4351 23.82 62.1436 22.4475L63.1962 24.6702C62.8071 24.9571 62.4132 25.2382 62.0336 25.5366C60.9887 26.3591 60.2726 26.9186 60.0976 28.2644C60.2936 28.3054 60.4867 28.3635 60.6856 28.3883C65.7431 29.005 72.3456 24.3356 76.1613 21.5153C73.2778 25.6004 70.7643 28.6743 66.6571 31.5556C73.0177 31.1915 76.8027 29.9724 82.1337 26.4888C68.9774 41.0983 60.4944 32.5583 45.7329 27.5944C38.5042 25.1716 30.8395 24.3242 23.2541 25.1086C18.8534 25.5242 13.5263 26.4297 9.59212 28.4732C6.71918 29.9648 4.1015 31.852 1.06985 33.031L0.943634 32.7317C2.40353 27.5553 7.48594 23.5017 10.5357 19.1983C11.9737 17.17 12.8723 14.6748 13.816 12.3863C13.4766 15.89 12.7557 19.3241 12.0826 22.7763C20.5093 17.1462 18.7377 12.8848 22.3249 9.66897C22.9616 13.4939 21.2703 17.3416 20.124 20.9435Z" fill="url(#paint3_linear_3_24)"/>
<path d="M264.883 135.434C270.757 135.544 279.883 134.598 284.253 139.108C285.301 140.19 285.785 141.565 285.662 143.066C285.401 146.262 283.503 147.993 281.33 150.076C282.793 153.692 288.903 153.979 285.985 161.209C285.164 163.241 283.32 164.538 281.321 165.282C278.632 166.282 267.613 167.173 265.039 166.127C264.891 166.067 264.76 165.97 264.622 165.892L264.377 164.935C265.195 165.056 265.644 165.327 266.375 164.893C271.174 164.265 278.372 165.96 282.389 162.794C283.762 161.713 284.388 160.414 284.593 158.709C284.807 156.924 284.449 155.488 283.205 154.146C279.699 150.361 270.819 151.468 266.068 151.559C265.472 150.501 265.233 149.045 264.898 147.87C264.644 143.729 264.751 139.579 264.883 135.434ZM266.367 149.948C270.742 149.793 276.843 150.804 280.888 149.305C282.345 147.469 283.821 144.968 283.399 142.497C283.139 140.971 282.201 139.902 280.917 139.101C276.883 136.588 270.894 137.128 266.342 137.112C266.334 139.393 265.668 148.467 266.367 149.948Z" fill="#BF7E65"/>
<path d="M263.665 18.9161C264.434 18.4195 264.153 18.7684 264.451 17.8753C265.922 13.4681 267.818 9.71847 272.126 7.5482C276.853 5.16539 281.969 4.01498 286.598 1.33384C287.364 0.890633 288.142 0.468396 288.91 0.0270996C288.415 7.50246 287.205 15.5716 281.142 20.7652C276.12 25.0685 270.02 24.8417 263.876 25.8711C265.909 20.5889 274.376 15.8566 278.442 12.1346L278.853 11.7524C273.92 14.3831 268.839 16.7888 264.437 20.2638L263.665 18.9161Z" fill="url(#paint4_linear_3_24)"/>
<path d="M342.888 134.509C343.798 134.89 344.376 135.296 344.91 136.145C347.056 139.554 357.359 163.76 356.744 166.314L355.993 166.284C353.758 164.299 352.469 159.54 351.414 156.744L344.514 156.749L335.592 156.878C334.655 159.372 333.364 164.457 330.932 165.884C330.656 161.517 340.563 138.612 342.888 134.509ZM336.548 155.234L343.151 155.297L350.732 155.313C349.099 150.935 346.129 140.88 343.472 137.569C341.055 143.414 338.747 149.304 336.548 155.234Z" fill="#BF7E65"/>
<path d="M246.567 3.55078C249.243 4.61638 252.083 5.52184 254.599 6.92674C259.703 9.77468 262.141 13.3575 263.665 18.9161L264.437 20.2638L263.441 21.3085C259.88 19.1449 258.079 14.4564 251.511 10.7783C255.404 14.6118 258.141 18.6197 261.624 22.6676C258.621 22.7915 255.576 22.09 253.163 20.2409C248.042 16.3179 247.302 9.46302 246.567 3.55078Z" fill="#E4B29E"/>
<path d="M302.317 135.769C306.4 135.602 315.497 134.422 318.928 136.325C316.674 138.406 306.57 137.512 303.209 137.329C302.998 137.317 302.787 137.295 302.576 137.279L301.644 137.685C301.313 141.476 301.012 146.421 301.867 150.144C307.096 149.938 312.73 149.447 317.919 150.244L318.223 150.763C314.973 152.563 305.891 151.765 302.035 151.425C301.004 155.202 301.631 160.447 301.638 164.394C307.151 164.388 312.742 164.168 318.214 164.922L318.839 165.514L318.728 165.017L319.231 165.458L319.587 165.392C315.058 167.324 304.985 166.324 299.791 166.319C299.744 162.235 298.934 137.814 300.208 135.93L302.317 135.769Z" fill="#BF7E65"/>
<path d="M391.099 156.56C391.037 157.505 390.889 158.495 390.628 159.405C389.886 161.995 387.936 164.131 385.606 165.425C382.657 167.036 379.185 167.412 375.957 166.468C373.221 165.644 370.969 163.794 369.724 161.219C367.92 157.488 367.41 138.983 368.809 135.067L369.539 134.991C371.706 138.745 368.467 153.451 371.607 160.089C372.646 162.286 374.429 163.952 376.788 164.627C379.532 165.411 382.555 164.758 384.923 163.238C387.389 161.656 388.586 159.63 389.257 156.842C389.296 156.68 389.331 156.517 389.369 156.355L391.099 156.56Z" fill="#BF7E65"/>
<path d="M422.17 135.548C423.076 135.514 423.837 135.521 424.739 135.678C425.728 135.85 425.362 135.648 425.938 136.494L425.517 137.407C422.173 138.183 418.19 137.739 414.744 137.678C414.919 143.595 415.797 161.047 414.662 165.929L414.03 165.995C413.05 164.394 413.359 162.118 413.363 160.292L413.274 137.691C410.568 137.739 404.914 138.38 402.685 136.728C405.213 134.902 418.298 135.766 422.17 135.548Z" fill="#BF7E65"/>
<path d="M446.064 154.601C444.36 151.624 434.914 137.073 434.946 135.27L435.917 135.275C440.063 137.949 444.182 147.014 446.867 151.379L447.569 151.677L448.741 153.122C447.405 157.327 449.033 162.699 446.85 166.594C445.501 163.233 446.03 158.163 446.064 154.601Z" fill="#A86956"/>
<path d="M261.624 22.6676C258.141 18.6197 255.404 14.6118 251.511 10.7783C258.079 14.4564 259.88 19.1449 263.441 21.3084L264.437 20.2638C268.839 16.7887 273.92 14.383 278.853 11.7524L278.442 12.1346C274.376 15.8566 265.909 20.5888 263.876 25.871C263.147 25.3316 262.923 24.9246 262.632 24.0916C262.218 22.9078 262.601 23.4053 261.624 22.6676Z" fill="#FEFBFE" fill-opacity="0.0117647"/>
<path d="M447.569 151.677C449.37 148.7 455.966 136.333 458.29 134.913L459.306 135.004C459.638 136.252 458.864 137.151 458.232 138.237C455.307 143.264 452.235 148.467 448.741 153.122L447.569 151.677Z" fill="#A86956"/>
<path d="M389.369 156.355C389.537 151.76 388.784 138.678 389.97 135.442L390.774 135.413C392.502 137.607 391.469 153.008 391.099 156.56L389.369 156.355Z" fill="#BF7E65"/>
<path d="M264.898 147.87C265.233 149.045 265.472 150.501 266.068 151.559C266.584 155.807 266.653 160.625 266.375 164.893C265.644 165.327 265.195 165.056 264.377 164.935C264.977 159.372 264.766 153.479 264.898 147.87Z" fill="#BF7E65" fill-opacity="0.988235"/>
<path d="M68.4459 18.2146C66.7958 20.5078 65.1609 22.6333 63.1962 24.6701L62.1436 22.4474L68.4459 18.2146Z" fill="#BF7E65" fill-opacity="0.988235"/>
<defs>
<linearGradient id="paint0_linear_3_24" x1="243.407" y1="75.8888" x2="168.246" y2="79.4242" gradientUnits="userSpaceOnUse">
<stop stop-color="#C0846D"/>
<stop offset="1" stop-color="#E7B398"/>
</linearGradient>
<linearGradient id="paint1_linear_3_24" x1="75.2029" y1="80.9833" x2="151.809" y2="75.7602" gradientUnits="userSpaceOnUse">
<stop stop-color="#D5987F"/>
<stop offset="1" stop-color="#F5C1A5"/>
</linearGradient>
<linearGradient id="paint2_linear_3_24" x1="-0.855555" y1="85.4589" x2="64.7399" y2="93.2783" gradientUnits="userSpaceOnUse">
<stop stop-color="#AF6D5A"/>
<stop offset="1" stop-color="#D0967C"/>
</linearGradient>
<linearGradient id="paint3_linear_3_24" x1="7.40312" y1="42.3353" x2="67.2766" y2="12.4458" gradientUnits="userSpaceOnUse">
<stop stop-color="#A1675C"/>
<stop offset="1" stop-color="#F1B495"/>
</linearGradient>
<linearGradient id="paint4_linear_3_24" x1="287.85" y1="12.5715" x2="265.141" y2="13.653" gradientUnits="userSpaceOnUse">
<stop stop-color="#B27862"/>
<stop offset="1" stop-color="#DFA28B"/>
</linearGradient>
</defs>
</svg>
